HIERARCHY
ROOT Reference
{
  OFFSET 0 0 0
  CHANNELS 6 Xposition Yposition Zposition Zrotation Xrotation Yrotation
  JOINT Hips
  {
    OFFSET 251.394 724.17 483.536
    CHANNELS 3 Zrotation Xrotation Yrotation
    JOINT RightUpLeg
    {
      OFFSET -0.450515 -23.4426 -1.37224
      CHANNELS 3 Zrotation Xrotation Yrotation
      JOINT RightLeg
      {
        OFFSET 112.821 0.0872427 -0.321027
        CHANNELS 3 Zrotation Xrotation Yrotation
        JOINT RightFoot
        {
          OFFSET 105.718 0.000193788 0.0213165
          CHANNELS 3 Zrotation Xrotation Yrotation
          JOINT RightToeBase
          {
            OFFSET 37.638 -0.000116272 0.00224792
            CHANNELS 3 Zrotation Xrotation Yrotation
            JOINT RightToeEnd
            {
              OFFSET 21.2112 0.114605 -0.000138184
              CHANNELS 3 Zrotation Xrotation Yrotation
              End Site
              {
                OFFSET 0 0 0
              }
            }
          }
        }
      }
    }
    JOINT LeftUpLeg
    {
      OFFSET -0.449508 23.4315 -1.37054
      CHANNELS 3 Zrotation Xrotation Yrotation
      JOINT LeftLeg
      {
        OFFSET 112.821 -0.0485242 -0.372458
        CHANNELS 3 Zrotation Xrotation Yrotation
        JOINT LeftFoot
        {
          OFFSET 105.716 0.00496094 -0.0229443
          CHANNELS 3 Zrotation Xrotation Yrotation
          JOINT LeftToeBase
          {
            OFFSET 37.639 0 0.00158905
            CHANNELS 3 Zrotation Xrotation Yrotation
            JOINT LeftToeEnd
            {
              OFFSET 21.2113 -0.125031 -0.00017438
              CHANNELS 3 Zrotation Xrotation Yrotation
              End Site
              {
                OFFSET 0 0 0
              }
            }
          }
        }
      }
    }
    JOINT Spine
    {
      OFFSET -5.01225 0.000463591 -9.60395
      CHANNELS 3 Zrotation Xrotation Yrotation
      JOINT Spine1
      {
        OFFSET 26.0222 -0.000271301 -0.000155029
        CHANNELS 3 Zrotation Xrotation Yrotation
        JOINT Spine2
        {
          OFFSET 27.173 -0.000155029 -0.000310058
          CHANNELS 3 Zrotation Xrotation Yrotation
          JOINT Spine3
          {
            OFFSET 36.3953 -0.000232544 7.75146e-005
            CHANNELS 3 Zrotation Xrotation Yrotation
            JOINT Neck
            {
              OFFSET 36.4331 0 -3.00261
              CHANNELS 3 Zrotation Xrotation Yrotation
              JOINT Head
              {
                OFFSET 23.0407 -0.000232544 -0.000310058
                CHANNELS 3 Zrotation Xrotation Yrotation
                End Site
                {
                  OFFSET 0 0 0
                }
              }
            }
            JOINT LeftShoulder
            {
              OFFSET 20.1317 6.74168 -12.6061
              CHANNELS 3 Zrotation Xrotation Yrotation
              JOINT LeftArm
              {
                OFFSET 34.2172 -5.81359e-005 7.75146e-005
                CHANNELS 3 Zrotation Xrotation Yrotation
                JOINT LeftForeArm
                {
                  OFFSET 65.4129 -0.0821605 0.0585235
                  CHANNELS 3 Zrotation Xrotation Yrotation
                  JOINT LeftHand
                  {
                    OFFSET 67.3883 0.0359667 0.0112396
                    CHANNELS 3 Zrotation Xrotation Yrotation
                    JOINT LeftHandThumb1
                    {
                      OFFSET 8.78386 2.85353 -6.05362
                      CHANNELS 3 Zrotation Xrotation Yrotation
                      JOINT LeftHandThumb2
                      {
                        OFFSET 8.25498 -0.000116272 -0.000174407
                        CHANNELS 3 Zrotation Xrotation Yrotation
                        JOINT LeftHandThumb3
                        {
                          OFFSET 7.24822 0.000310058 5.81358e-005
                          CHANNELS 3 Zrotation Xrotation Yrotation
                          JOINT LeftHandThumb4
                          {
                            OFFSET 7.0004 -3.87568e-005 -0.000310057
                            CHANNELS 3 Zrotation Xrotation Yrotation
                            End Site
                            {
                              OFFSET 0 0 0
                            }
                          }
                        }
                      }
                    }
                    JOINT LeftHandIndex1
                    {
                      OFFSET 24.0991 -1.01537 -5.40558
                      CHANNELS 3 Zrotation Xrotation Yrotation
                      JOINT LeftHandIndex2
                      {
                        OFFSET 7.26759 -0.000290679 -0.000465086
                        CHANNELS 3 Zrotation Xrotation Yrotation
                        JOINT LeftHandIndex3
                        {
                          OFFSET 7.13628 -1.93787e-005 0.000232543
                          CHANNELS 3 Zrotation Xrotation Yrotation
                          JOINT LeftHandIndex4
                          {
                            OFFSET 5.46699 9.68932e-005 -0.000387571
                            CHANNELS 3 Zrotation Xrotation Yrotation
                            End Site
                            {
                              OFFSET 0 0 0
                            }
                          }
                        }
                      }
                    }
                    JOINT LeftHandMiddle1
                    {
                      OFFSET 24.4604 -2.52837 0.918567
                      CHANNELS 3 Zrotation Xrotation Yrotation
                      JOINT LeftHandMiddle2
                      {
                        OFFSET 7.41627 -5.81359e-005 0.000116271
                        CHANNELS 3 Zrotation Xrotation Yrotation
                        JOINT LeftHandMiddle3
                        {
                          OFFSET 8.76829 3.87573e-005 -7.75142e-005
                          CHANNELS 3 Zrotation Xrotation Yrotation
                          JOINT LeftHandMiddle4
                          {
                            OFFSET 6.07588 -0.00013565 -5.81356e-005
                            CHANNELS 3 Zrotation Xrotation Yrotation
                            End Site
                            {
                              OFFSET 0 0 0
                            }
                          }
                        }
                      }
                    }
                    JOINT LeftHandRing1
                    {
                      OFFSET 22.465 -1.97467 6.3466
                      CHANNELS 3 Zrotation Xrotation Yrotation
                      JOINT LeftHandRing2
                      {
                        OFFSET 7.36666 -0.000232544 0.000387571
                        CHANNELS 3 Zrotation Xrotation Yrotation
                        JOINT LeftHandRing3
                        {
                          OFFSET 8.07624 -0.000465087 -0.000203475
                          CHANNELS 3 Zrotation Xrotation Yrotation
                          JOINT LeftHandRing4
                          {
                            OFFSET 6.04433 0.00013565 3.87571e-005
                            CHANNELS 3 Zrotation Xrotation Yrotation
                            End Site
                            {
                              OFFSET 0 0 0
                            }
                          }
                        }
                      }
                    }
                    JOINT LeftHandPinky1
                    {
                      OFFSET 19.5278 0.352933 10.4295
                      CHANNELS 3 Zrotation Xrotation Yrotation
                      JOINT LeftHandPinky2
                      {
                        OFFSET 6.16525 5.8136e-005 -0.000251921
                        CHANNELS 3 Zrotation Xrotation Yrotation
                        JOINT LeftHandPinky3
                        {
                          OFFSET 6.14448 -0.000329434 -0.00510625
                          CHANNELS 3 Zrotation Xrotation Yrotation
                          JOINT LeftHandPinky4
                          {
                            OFFSET 4.98555 0.000116272 0.000116271
                            CHANNELS 3 Zrotation Xrotation Yrotation
                            End Site
                            {
                              OFFSET 0 0 0
                            }
                          }
                        }
                      }
                    }
                  }
                }
              }
            }
            JOINT RightShoulder
            {
              OFFSET 20.1309 -6.74152 -12.6063
              CHANNELS 3 Zrotation Xrotation Yrotation
              JOINT RightArm
              {
                OFFSET 34.2171 7.75146e-005 7.75146e-005
                CHANNELS 3 Zrotation Xrotation Yrotation
                JOINT RightForeArm
                {
                  OFFSET 65.4492 0.242543 -0.176501
                  CHANNELS 3 Zrotation Xrotation Yrotation
                  JOINT RightHand
                  {
                    OFFSET 67.3888 -0.0867388 0.0597442
                    CHANNELS 3 Zrotation Xrotation Yrotation
                    JOINT RightHandThumb1
                    {
                      OFFSET 8.78307 -2.85357 -6.05302
                      CHANNELS 3 Zrotation Xrotation Yrotation
                      JOINT RightHandThumb2
                      {
                        OFFSET 8.25493 -7.75145e-005 0
                        CHANNELS 3 Zrotation Xrotation Yrotation
                        JOINT RightHandThumb3
                        {
                          OFFSET 7.24797 -0.000174408 0.000155029
                          CHANNELS 3 Zrotation Xrotation Yrotation
                          JOINT RightHandThumb4
                          {
                            OFFSET 7.00062 0 0
                            CHANNELS 3 Zrotation Xrotation Yrotation
                            End Site
                            {
                              OFFSET 0 0 0
                            }
                          }
                        }
                      }
                    }
                    JOINT RightHandIndex1
                    {
                      OFFSET 24.0991 1.01525 -5.40578
                      CHANNELS 3 Zrotation Xrotation Yrotation
                      JOINT RightHandIndex2
                      {
                        OFFSET 7.26773 7.75144e-005 0.000232543
                        CHANNELS 3 Zrotation Xrotation Yrotation
                        JOINT RightHandIndex3
                        {
                          OFFSET 7.13572 -0.000310058 3.87571e-005
                          CHANNELS 3 Zrotation Xrotation Yrotation
                          JOINT RightHandIndex4
                          {
                            OFFSET 5.46717 0 3.87572e-005
                            CHANNELS 3 Zrotation Xrotation Yrotation
                            End Site
                            {
                              OFFSET 0 0 0
                            }
                          }
                        }
                      }
                    }
                    JOINT RightHandMiddle1
                    {
                      OFFSET 24.4603 2.52899 0.918547
                      CHANNELS 3 Zrotation Xrotation Yrotation
                      JOINT RightHandMiddle2
                      {
                        OFFSET 7.41641 -0.000116272 -0.000116272
                        CHANNELS 3 Zrotation Xrotation Yrotation
                        JOINT RightHandMiddle3
                        {
                          OFFSET 8.76765 -3.87577e-005 0.000232543
                          CHANNELS 3 Zrotation Xrotation Yrotation
                          JOINT RightHandMiddle4
                          {
                            OFFSET 6.07609 -0.000193787 -0.000116271
                            CHANNELS 3 Zrotation Xrotation Yrotation
                            End Site
                            {
                              OFFSET 0 0 0
                            }
                          }
                        }
                      }
                    }
                    JOINT RightHandRing1
                    {
                      OFFSET 22.465 1.97571 6.34696
                      CHANNELS 3 Zrotation Xrotation Yrotation
                      JOINT RightHandRing2
                      {
                        OFFSET 7.36684 0.000193786 0.000155029
                        CHANNELS 3 Zrotation Xrotation Yrotation
                        JOINT RightHandRing3
                        {
                          OFFSET 8.07614 -0.000271301 0
                          CHANNELS 3 Zrotation Xrotation Yrotation
                          JOINT RightHandRing4
                          {
                            OFFSET 6.04468 0.000232543 0
                            CHANNELS 3 Zrotation Xrotation Yrotation
                            End Site
                            {
                              OFFSET 0 0 0
                            }
                          }
                        }
                      }
                    }
                    JOINT RightHandPinky1
                    {
                      OFFSET 19.5277 -0.352346 10.4296
                      CHANNELS 3 Zrotation Xrotation Yrotation
                      JOINT RightHandPinky2
                      {
                        OFFSET 6.16508 0 0.000232543
                        CHANNELS 3 Zrotation Xrotation Yrotation
                        JOINT RightHandPinky3
                        {
                          OFFSET 6.14396 -0.000155048 -0.0048834
                          CHANNELS 3 Zrotation Xrotation Yrotation
                          JOINT RightHandPinky4
                          {
                            OFFSET 4.98577 -7.75146e-005 -7.75143e-005
                            CHANNELS 3 Zrotation Xrotation Yrotation
                            End Site
                            {
                              OFFSET 0 0 0
                            }
                          }
                        }
                      }
                    }
                  }
                }
              }
            }
          }
        }
      }
    }
  }
}
MOTION
Frames:	4
Frame Time:	0.0333333
0 0 0 -90 -7.01671e-015 -180 1.5267 -5.58535 -108.878 -173.349 10.6934 -32.7114 1.55978 -0.147257 -95.4868 8.33633 15.2711 41.3741 -2.67033 1.7559 57.9124 -0.000513777 -0.00014275 -86.4973 -171.217 8.55154 -26.8533 -6.50546 -4.79292 -97.5535 0.834035 -4.56458 27.433 2.99488 -1.69482 62.3555 -7.21485e-006 -0.000106457 -86.4974 1.56823 -2.00555 125.711 0.436977 0.621249 -2.04146 -0.958298 0.570946 -4.04509 -1.43756 4.3005 11.56 -3.6533 2.56195 36.1771 -1.60064 4.88325 61.1559 95.9815 20.0216 -25.2586 41.6522 7.846 28.4061 0.990286 -6.01381 115.162 -5.36327 -6.55102 27.4165 -149.04 0.685014 155.334 0.00039131 -0.000225116 25.8347 0.000251583 -7.96557e-006 28.0495 0.000239055 -0.00141714 -0.000140229 154.695 72.9687 -126.814 -0.000389039 -0.000362502 10.0986 0.00114759 -0.000726499 12.5244 -0.000554956 -0.000530105 -0.000473847 152.013 82.2938 -122.941 -0.0013601 -0.00220565 34.8452 0.0014129 -0.00043697 36.5667 -0.000529339 -0.00032573 0.000118219 85.2613 84.7356 -47.2368 -0.000958918 -0.00260912 35.9868 0.00206609 2.54841e-005 38.8372 -0.00063179 -0.000684961 0.000692246 87.417 72.8107 -45.736 0.00149566 -0.00101197 37.6058 0.000754224 0.000210453 41.9167 -4.95198e-005 -0.000114341 -0.000411465 -84.841 -23.714 -17.1371 -41.0833 4.2686 -12.2003 -2.96354 -3.53587 127.602 60.2362 -42.285 32.6903 147.556 -21.6904 160.205 -0.000147166 0.000210744 25.8347 7.05573e-005 0.000253953 28.0495 -1.52588e-005 -6.10351e-005 -180 177.937 -81.2517 -136.128 -0.000115772 -0.000582044 27.5066 0.000168345 0.000295383 29.9325 -9.15529e-005 -3.05176e-005 -180 147.125 -85.3812 -168.508 -0.000110045 4.85967e-005 43.4913 -0.000283736 0.000504297 18.9685 -1.52588e-005 3.05176e-005 -180 -85.2952 -84.5997 -32.255 9.43212e-005 -0.000427783 44.6311 -0.000584497 0.00103905 21.239 0.0028534 -0.00170898 180 -87.4408 -72.3985 -30.7139 -0.000263883 0.000805182 46.2528 -0.000256935 0.000297575 24.3185 -3.24612e-014 -3.05175e-005 180 
0 0 0 -90 -7.01671e-015 -180 1.51517 -5.53698 -109.3 -173.067 10.5106 -32.4914 1.57167 -0.172979 -95.4246 8.39871 15.2105 40.7129 -2.67033 1.75584 57.9124 -0.000513701 -0.000153578 -86.4973 -171.016 8.3596 -27.2818 -6.48665 -4.8004 -97.5081 0.758933 -4.55051 27.4048 2.99488 -1.69485 62.3555 -7.13453e-006 -0.000214303 -86.4974 1.59313 -2.01104 125.487 0.435733 0.590867 -2.05693 -0.959399 0.5407 -4.06081 -1.42984 4.27276 11.5435 -3.28923 2.33129 36.012 -1.42131 4.48972 60.9883 95.9389 20.0404 -25.3597 40.0194 11.0069 25.3778 1.18932 -10.1339 115.575 -7.39856 -0.140428 26.0666 -149.04 0.685042 155.334 0.000388216 -6.58737e-005 25.8347 0.000250477 -3.54022e-005 28.0495 0.000239055 -0.0015212 -0.000140229 155.056 73.125 -128.711 -0.00039711 -0.000363296 8.45097 0.00111426 -0.000734517 10.9223 -0.000554956 -0.00053847 -0.000473847 152.042 82.2903 -125.479 0.000195915 -0.000352957 32.3295 0.001382 -0.000466039 34.0865 -0.000529339 -0.000347597 0.000118219 85.2931 84.7319 -49.7773 0.000409403 -0.000820044 33.4694 0.00202393 -1.2421e-005 36.3571 -0.000631789 -0.000707742 0.000692246 87.4466 72.7999 -48.274 0.0014523 -0.00105049 35.091 0.000711765 0.000168945 39.4365 -4.95205e-005 -0.000202209 -0.000411466 -84.841 -23.714 -17.1371 -41.3089 4.17218 -10.9781 -2.94405 -3.3502 126.993 59.1904 -43.1567 32.068 147.556 -21.6904 160.205 -0.00014539 0.000177699 25.8347 7.00793e-005 0.000248327 28.0495 -1.52588e-005 -7.62939e-005 -180 177.937 -81.2517 -136.128 -0.000116007 -0.000588112 27.5066 0.000167844 0.000281051 29.9325 -9.15529e-005 -3.05176e-005 -180 147.125 -85.3812 -168.508 -0.000109025 0.000197583 43.4913 -0.000283733 0.000500125 18.9685 -1.52588e-005 3.05176e-005 -180 -85.2954 -84.5997 -32.2552 9.30016e-005 -0.000224108 44.6311 -0.00058468 0.0010366 21.239 0.0028534 -0.00170898 180 -87.4409 -72.3986 -30.714 -0.000264305 0.000800237 46.2528 -0.000256489 0.00029537 24.3185 7.01671e-015 -4.57763e-005 -180 
0 0 0 -90 -7.01671e-015 -180 1.50353 -5.48699 -109.791 -172.444 10.2674 -31.2534 1.54488 -0.232582 -95.206 8.66711 15.0125 39.0797 -2.67033 1.75573 57.9124 -0.000513551 -0.000174929 -86.4973 -170.775 8.15607 -27.7856 -6.46105 -4.80858 -97.4629 0.689194 -4.53381 27.3862 2.99487 -1.69488 62.3555 -7.06372e-006 -9.06434e-007 -86.4974 1.62299 -2.02199 125.188 0.436906 0.562448 -2.03741 -0.956525 0.512331 -4.04179 -1.42366 4.24477 11.5618 -2.74196 2.04691 35.7213 -1.09829 3.95356 60.6886 95.8934 20.0602 -25.4672 37.0351 18.2614 22.8829 1.44143 -18.6203 116.033 -11.3467 7.28003 24.8509 -149.04 0.68507 155.334 0.000388396 -7.3281e-005 25.8347 0.000252951 -8.98745e-005 28.0495 0.000239906 -0.00131225 -0.000138735 155.491 73.2474 -130.738 -0.000410817 -0.000363369 6.6572 0.00108149 -0.000739552 9.2194 -0.000554957 -0.000553743 -0.000473847 152.066 82.2738 -127.955 0.000181097 -0.000353709 29.8781 0.00135066 -0.000487154 31.6064 -0.00052934 -0.000391265 0.000118219 85.3183 84.7183 -52.2536 0.000380701 -0.000843597 31.0179 0.00198207 -4.56332e-005 33.8769 -0.000631789 -0.000752269 0.000692246 87.474 72.7594 -50.7495 0.00141433 -0.00107155 32.6396 0.000664199 0.00012694 36.9564 -5.0373e-005 -2.4332e-005 -0.000411092 -84.841 -23.714 -17.1371 -41.6897 4.01971 -9.58951 -2.91977 -3.00586 126.291 57.9465 -44.1316 31.4073 147.556 -21.6905 160.205 -0.000155911 0.000106064 25.8347 7.525e-005 0.000241812 28.0495 -1.52588e-005 -7.62939e-005 -180 177.937 -81.2517 -136.128 -0.000117989 -0.000601492 27.5066 0.000170222 0.00025409 29.9325 -9.15529e-005 -4.57763e-005 -180 147.125 -85.3812 -168.508 -0.000101664 0.000201084 43.4913 -0.000287011 0.000491373 18.9685 -1.52588e-005 3.05176e-005 -180 -85.2959 -84.5997 -32.2557 8.34256e-005 -0.000236814 44.6311 -0.000587202 0.00103564 21.239 0.0028534 -0.00170898 180 -87.4412 -72.3985 -30.7143 -0.000262607 0.000790031 46.2528 -0.000262253 0.000287947 24.3185 -7.01671e-015 -7.62939e-005 -180 
0 0 0 -90 -7.01671e-015 -180 1.49237 -5.43626 -110.342 -171.691 10.177 -29.2785 1.44371 -0.305688 -94.7616 9.08711 14.7375 36.9963 -2.67033 1.75595 57.9124 -0.000513437 -0.000214863 -86.4973 -170.506 7.93958 -28.3525 -6.43546 -4.81674 -97.4177 0.625389 -4.51535 27.3753 2.99487 -1.69495 62.3555 -6.95895e-006 -1.91826e-006 -86.4974 1.65615 -2.03741 124.835 0.440116 0.535672 -1.992 -0.950354 0.485561 -3.99707 -1.4184 4.21679 11.6059 -2.03377 1.71173 35.3173 -0.647525 3.28903 60.275 95.8481 20.0802 -25.5748 35.5679 23.523 20.3297 1.71923 -24.7367 116.432 -16.0342 14.3824 24.7427 -149.04 0.685111 155.334 0.000391567 -8.68521e-005 25.8347 0.000257076 -0.000199625 28.0495 0.000239906 -0.00131466 -0.000138736 155.954 73.3409 -132.852 -0.000418931 -0.000362536 4.85045 0.00105024 -0.000743829 7.49543 -0.000554957 -0.000585042 -0.000473847 152.077 82.2468 -130.291 0.000156931 -0.000360974 27.5528 0.00132297 -0.00050805 29.2812 -0.000529341 -0.000479464 0.000118218 85.3278 84.6971 -54.5877 0.000345722 -0.000860419 28.6927 0.00194058 -8.20622e-005 31.5517 -0.00063179 -0.000843492 0.000692244 87.4896 72.6957 -53.085 0.00137275 -0.0010867 30.3144 0.000623579 8.45594e-005 34.6312 -5.0373e-005 -2.43321e-005 -0.000411092 -84.841 -23.714 -17.1371 -42.1919 3.81205 -8.07418 -2.89064 -2.53726 125.502 56.5427 -45.1762 30.719 147.556 -21.6905 160.205 -0.000167026 0.000228889 25.8347 7.56214e-005 0.000223213 28.0495 -1.52588e-005 -0.000106811 -180 177.937 -81.2516 -136.128 -0.000119023 -0.00062585 27.5066 0.000172181 0.000199819 29.9325 -9.15529e-005 -4.57763e-005 -180 147.125 -85.3812 -168.508 -9.58656e-005 0.000202332 43.4913 -0.000288065 0.000476734 18.9685 -1.52588e-005 3.05176e-005 -180 -85.2968 -84.5997 -32.2567 8.33432e-005 -0.00024156 44.6311 -0.000587029 0.00103333 21.239 0.0028534 -0.00170898 180 -87.4406 -72.3985 -30.7137 -0.000262561 0.000768019 46.2528 -0.000262266 0.000277996 24.3185 7.01672e-015 -0.000137329 -180 
